General
Unique ID                                : 108861986565577872664410695170723359772 (0x51E60E5442AE2C95845E6EADD74F2C1C)
Complete name                            : ikimonogakari - Kaze to Mirai [BluRay 1080i PCM 96-24 2.0 AVC REMUX-SEKAI].mkv
Format                                   : Matroska
Format version                           : Version 4
File size                                : 1.42 GiB
Duration                                 : 5 min 28 s
Overall bit rate mode                    : Variable
Overall bit rate                         : 37.3 Mb/s
Frame rate                               : 59.940 FPS
Title                                    : ikimonogakari - Kaze to Mirai [BluRay 1080i 24-96 PCM 2.0 AVC REMUX-SEKAI]
Encoded date                             : 2026-03-06 08:59:50 UTC
Writing application                      : mkvmerge v97.0 ('You Don't Have A Clue') 64-bit
Writing library                          : libebml v1.4.5 + libmatroska v1.7.1
Website                                  : https://sekai-archivist.blogspot.com/

Video
ID                                       : 1
ID in the original source medium         : 4113 (0x1011)
Format                                   : AVC
Format/Info                              : Advanced Video Codec
Format profile                           : High@L4.1
Format settings                          : CABAC / 2 Ref Frames
Format settings, CABAC                   : Yes
Format settings, Reference frames        : 2 frames
Format settings, GOP                     : M=1, N=26
Format settings, Slice count             : 4 slices per frame
Codec ID                                 : V_MPEG4/ISO/AVC
Duration                                 : 5 min 28 s
Bit rate mode                            : Variable
Bit rate                                 : 31.1 Mb/s
Width                                    : 1 920 pixels
Height                                   : 1 080 pixels
Display aspect ratio                     : 16:9
Frame rate mode                          : Variable
Frame rate                               : 59.940 (59940/1000) FPS
Original frame rate                      : 29.970 (30000/1001) FPS
Color space                              : YUV
Chroma subsampling                       : 4:2:0
Bit depth                                : 8 bits
Scan type                                : Interlaced
Scan type, store method                  : Separated fields
Scan order                               : Top Field First
Bits/(Pixel*Frame)                       : 0.250
Time code of first frame                 : 01:45:11:15
Stream size                              : 1.19 GiB (83%)
Language                                 : Japanese
Default                                  : Yes
Forced                                   : No
Original source medium                   : Blu-ray

Audio #1
ID                                       : 2
ID in the original source medium         : 4352 (0x1100)
Format                                   : PCM
Format settings                          : Little / Signed
Codec ID                                 : A_PCM/INT/LIT
Duration                                 : 5 min 28 s
Bit rate mode                            : Constant
Bit rate                                 : 4 608 kb/s
Channel(s)                               : 2 channels
Sampling rate                            : 96.0 kHz
Frame rate                               : 25.000 FPS (3840 SPF)
Bit depth                                : 24 bits
Delay relative to video                  : 28 ms
Stream size                              : 180 MiB (12%)
Language                                 : Japanese
Default                                  : Yes
Forced                                   : No
Original source medium                   : Blu-ray

Audio #2
ID                                       : 3
ID in the original source medium         : 4353 (0x1101)
Format                                   : PCM
Format settings                          : Little / Signed
Codec ID                                 : A_PCM/INT/LIT
Duration                                 : 5 min 28 s
Bit rate mode                            : Constant
Bit rate                                 : 1 536 kb/s
Channel(s)                               : 2 channels
Sampling rate                            : 48.0 kHz
Frame rate                               : 25.000 FPS (1920 SPF)
Bit depth                                : 16 bits
Delay relative to video                  : 28 ms
Stream size                              : 60.1 MiB (4%)
Title                                    : Commentary
Language                                 : Japanese
Default                                  : No
Forced                                   : No
Original source medium                   : Blu-ray

Text
ID                                       : 4
ID in the original source medium         : 4608 (0x1200)
Format                                   : PGS
Muxing mode                              : zlib
Codec ID                                 : S_HDMV/PGS
Codec ID/Info                            : Picture based subtitle format used on BDs/HD-DVDs
Duration                                 : 3 min 58 s
Bit rate                                 : 42.5 kb/s
Frame rate                               : 0.294 FPS
Count of elements                        : 70
Stream size                              : 1.21 MiB (0%)
Title                                    : Japanese Subtitle
Language                                 : Japanese
Default                                  : Yes
Forced                                   : No
Original source medium                   : Blu-ray


